<svg width="21" height="21" viewBox="0 0 21 21" fill="none" xmlns="http://www.w3.org/2000/svg">
<path d="M20.0873 10.0415C20.0861 4.49458 15.5885 -0.00112131 10.0415 2.09791e-07C4.49458 0.00112173 -0.00112131 4.49891 2.09791e-07 10.0458C0.000961515 14.4151 2.8264 18.2824 6.98869 19.6114C7.02842 19.6239 7.06976 19.6303 7.11125 19.6302C7.1904 19.63 7.26795 19.6089 7.33604 19.5686C7.42464 19.5163 7.49081 19.4329 7.52189 19.3347L10.0583 11.2957C10.7517 11.2921 11.3109 10.727 11.3072 10.0338C11.3037 9.34036 10.7387 8.7812 10.0453 8.78473C9.85882 8.78553 9.67473 8.82846 9.50714 8.91034L6.15636 5.55907C5.99005 5.39853 5.72521 5.40317 5.56467 5.56932C5.40798 5.73162 5.40798 5.98861 5.56467 6.15091L8.9137 9.50378C8.65671 10.0283 8.80363 10.6615 9.2657 11.0191L6.84898 18.6794C2.07289 16.9201 -0.372666 11.6222 1.38668 6.84609C3.14603 2.07001 8.44394 -0.37555 13.22 1.3838C17.9961 3.14315 20.4417 8.44122 18.6823 13.2171C17.8228 15.5505 16.0567 17.4376 13.7853 18.4497L13.5241 17.2197C13.4764 16.9936 13.2542 16.8491 13.0281 16.897C12.9568 16.9122 12.8906 16.9457 12.8361 16.9943L10.3182 19.2423C10.1455 19.3959 10.1301 19.6604 10.2839 19.8332C10.3339 19.8892 10.398 19.9309 10.4697 19.9538L13.6845 20.9798C13.9045 21.0505 14.1402 20.9295 14.2108 20.7094C14.2332 20.6399 14.2369 20.5658 14.2219 20.4944L13.9652 19.2875C17.6824 17.7204 20.0959 14.0754 20.0873 10.0415ZM10.0437 9.62298C10.2747 9.62298 10.4622 9.81044 10.4622 10.0415C10.4622 10.2727 10.2747 10.46 10.0437 10.46C9.81252 10.46 9.62523 10.2727 9.62523 10.0415C9.62523 9.81044 9.81252 9.62298 10.0437 9.62298ZM11.4221 19.3775L12.8554 18.099L13.2509 19.9629L11.4221 19.3775Z" fill="#F8A317"/>
<path d="M9.625 2.09012V2.92709C9.625 3.15829 9.81229 3.34558 10.0435 3.34558C10.2745 3.34558 10.462 3.15829 10.462 2.92709V2.09012C10.462 1.85909 10.2745 1.67163 10.0435 1.67163C9.81229 1.67163 9.625 1.85909 9.625 2.09012Z" fill="#F8A317"/>
<path d="M2.09232 9.62305C1.86112 9.62305 1.67383 9.8105 1.67383 10.0415C1.67383 10.2727 1.86112 10.46 2.09232 10.46H2.92929C3.16049 10.46 3.34778 10.2727 3.34778 10.0415C3.34778 9.8105 3.16049 9.62305 2.92929 9.62305H2.09232Z" fill="#F8A317"/>
<path d="M17.9947 10.46C18.2259 10.46 18.4132 10.2727 18.4132 10.0415C18.4132 9.8105 18.2259 9.62305 17.9947 9.62305H17.1577C16.9267 9.62305 16.7393 9.8105 16.7393 10.0415C16.7393 10.2727 16.9267 10.46 17.1577 10.46H17.9947Z" fill="#F8A317"/>
</svg>
