<svg width="94" height="94" viewBox="0 0 94 94" fill="none" xmlns="http://www.w3.org/2000/svg">
<path d="M47 0C28.7688 0 13.9531 14.816 13.9531 33.0469C13.9531 39.2156 15.6609 45.2193 18.9103 50.3967L44.7598 92.6992C45.2008 93.4153 45.8617 93.8561 46.633 93.9662C47.6791 94.1313 48.8363 93.6908 49.442 92.6443L75.3654 49.9559C78.4494 44.8889 80.0469 38.9955 80.0469 33.0469C80.0469 14.816 65.2312 0 47 0ZM47 49.5703C37.7472 49.5703 30.4766 42.0797 30.4766 33.0469C30.4766 23.9588 37.9119 16.5234 47 16.5234C56.0881 16.5234 63.5234 23.9588 63.5234 33.0469C63.5234 42.0246 56.3631 49.5703 47 49.5703Z" fill="#FD003A"/>
<path d="M47 0V16.5234C56.0881 16.5234 63.5234 23.9588 63.5234 33.0469C63.5234 42.0246 56.3631 49.5703 47 49.5703V93.9983C47.9398 94.0202 48.9063 93.5696 49.4418 92.6443L75.3652 49.9559C78.4494 44.8889 80.0469 38.9955 80.0469 33.0469C80.0469 14.816 65.2312 0 47 0Z" fill="#E50027"/>
</svg>
