<svg width="21" height="21" viewBox="0 0 21 21" fill="none" xmlns="http://www.w3.org/2000/svg">
<path d="M10.5 3.88368e-05C8.4233 3.23901e-05 6.39324 0.615841 4.66652 1.76959C2.9398 2.92334 1.59399 4.56322 0.799269 6.48184C0.00454857 8.40046 -0.203386 10.5117 0.20176 12.5485C0.606907 14.5853 1.60694 16.4562 3.07539 17.9246C5.04452 19.8938 7.71524 21 10.5 21C13.2848 21 15.9555 19.8938 17.9246 17.9246C19.8938 15.9555 21 13.2848 21 10.5C21 7.71524 19.8938 5.04452 17.9246 3.07539C16.9519 2.09733 15.7948 1.32191 14.5204 0.79403C13.2459 0.266145 11.8794 -0.00372515 10.5 3.88368e-05ZM4.40294 18.1731C4.64694 17.377 5.08929 16.6559 5.68845 16.0777C6.28761 15.4994 7.02391 15.083 7.82821 14.8674C8.6325 14.6518 9.47839 14.6442 10.2864 14.8453C11.0945 15.0463 11.8382 15.4495 12.4476 16.0169C12.5349 16.0982 12.6188 16.1822 12.6994 16.269C13.4625 17.0889 13.9215 18.1454 14 19.2627L14.0276 19.6487C12.4333 20.2599 10.7074 20.4452 9.01969 20.1865C7.33202 19.9277 5.74086 19.2338 4.40294 18.1731ZM13.3 10.5C13.3 10.2807 13.2829 10.0618 13.2489 9.84516C13.5242 9.56631 13.8524 9.34517 14.2143 9.19469C14.5761 9.0442 14.9644 8.9674 15.3562 8.96876C15.903 8.96884 16.4391 9.11958 16.9058 9.40441C17.3724 9.68925 17.7516 10.0972 18.0016 10.5834C18.2516 11.0696 18.3627 11.6153 18.3229 12.1606C18.283 12.7059 18.0937 13.2296 17.7757 13.6743C17.4577 14.119 17.0232 14.4675 16.5201 14.6815C16.017 14.8954 15.4646 14.9666 14.9237 14.8872C14.3828 14.8078 13.8742 14.5809 13.4538 14.2313C13.0334 13.8818 12.7175 13.4232 12.5407 12.9058C13.0357 12.2013 13.3009 11.361 13.3 10.5ZM13.0063 15.5826C12.9793 15.5564 12.9522 15.5304 12.9247 15.5048C12.3429 14.9622 11.6522 14.5498 10.8987 14.2948C11.3167 14.0956 11.699 13.829 12.0303 13.5056C12.3849 14.2609 12.9857 14.8732 13.7341 15.242C13.4829 15.3362 13.2395 15.4501 13.0063 15.5826ZM9.10001 14C8.40778 14 7.73109 13.7947 7.15552 13.4101C6.57995 13.0256 6.13135 12.4789 5.86644 11.8394C5.60154 11.1999 5.53222 10.4961 5.66727 9.81719C5.80232 9.13826 6.13566 8.51462 6.62514 8.02514C7.11463 7.53566 7.73827 7.20232 8.4172 7.06727C9.09613 6.93222 9.79986 7.00153 10.4394 7.26644C11.0789 7.53134 11.6256 7.97995 12.0101 8.55552C12.3947 9.13109 12.6 9.80778 12.6 10.5C12.5989 11.4279 12.2299 12.3176 11.5737 12.9737C10.9176 13.6299 10.0279 13.9989 9.10001 14ZM17.4296 17.4296C16.6391 18.2223 15.7187 18.8737 14.7084 19.3558L14.6982 19.2128C14.6186 18.082 14.1974 17.002 13.4904 16.116C14.2371 15.728 15.0791 15.5616 15.9173 15.6361C16.7555 15.7106 17.5549 16.0231 18.2215 16.5367C17.9756 16.8499 17.7112 17.1481 17.4296 17.4296ZM18.6343 15.9701C18.1762 15.6195 17.662 15.3492 17.1136 15.1705C17.831 14.7799 18.3978 14.1615 18.7245 13.4129C19.0512 12.6642 19.1191 11.8281 18.9176 11.0366C18.716 10.245 18.2565 9.54317 17.6116 9.04194C16.9666 8.54071 16.1731 8.26865 15.3562 8.26876C14.5178 8.26579 13.7042 8.55258 13.0529 9.08059C12.8197 8.43077 12.4299 7.84847 11.9179 7.38523C11.406 6.92198 10.7878 6.59207 10.118 6.4247C9.4482 6.25733 8.74746 6.25766 8.07781 6.42566C7.40816 6.59366 6.79026 6.92414 6.27878 7.38787C5.7673 7.8516 5.37802 8.43426 5.14541 9.08429C4.91279 9.73433 4.844 10.4317 4.94513 11.1146C5.04627 11.7976 5.3142 12.4451 5.72522 12.9998C6.13624 13.5545 6.67767 13.9994 7.30159 14.295C6.50654 14.5633 5.78189 15.0067 5.18109 15.5924C4.58029 16.1782 4.11867 16.8914 3.8303 17.6794C3.74253 17.5977 3.6556 17.5148 3.57038 17.4296C1.73697 15.5908 0.70826 13.0996 0.71016 10.5029C0.712061 7.9063 1.74441 5.41657 3.58051 3.58047C5.41661 1.74438 7.90635 0.712032 10.503 0.71014C13.0996 0.708248 15.5909 1.73696 17.4296 3.57038C19.036 5.17755 20.0343 7.29269 20.254 9.55434C20.4738 11.816 19.9012 14.0837 18.6343 15.9701Z" fill="#F8A317"/>
<path d="M16.1542 3.36897C14.5493 2.08701 12.5544 1.39226 10.5004 1.39997C5.48265 1.39997 1.40039 5.48222 1.40039 10.4999C1.4012 12.6279 2.14685 14.6884 3.508 16.3241C3.53743 16.3594 3.57353 16.3885 3.61423 16.4099C3.65493 16.4312 3.69944 16.4443 3.74522 16.4485C3.79099 16.4526 3.83714 16.4477 3.88101 16.4341C3.92489 16.4204 3.96565 16.3982 4.00095 16.3687C4.03625 16.3393 4.06541 16.3032 4.08676 16.2625C4.10811 16.2218 4.12124 16.1773 4.12539 16.1315C4.12954 16.0858 4.12463 16.0396 4.11095 15.9957C4.09726 15.9518 4.07507 15.9111 4.04564 15.8758C2.7893 14.366 2.10109 12.4641 2.10039 10.4999C2.10039 5.86818 5.86861 2.09996 10.5004 2.09996C12.3962 2.09278 14.2376 2.734 15.7189 3.91725C17.1744 5.0743 18.2072 6.67952 18.6569 8.48368C18.6676 8.52856 18.6872 8.57087 18.7143 8.60817C18.7415 8.64547 18.7758 8.67703 18.8152 8.70103C18.8546 8.72503 18.8984 8.741 18.944 8.74802C18.9896 8.75504 19.0362 8.75296 19.081 8.74192C19.1258 8.73088 19.168 8.71109 19.2051 8.68368C19.2422 8.65628 19.2736 8.6218 19.2973 8.58223C19.3211 8.54266 19.3368 8.49879 19.3435 8.45314C19.3502 8.40748 19.3478 8.36095 19.3365 8.31621C18.8495 6.36166 17.7308 4.62258 16.1542 3.36897Z" fill="#F8A317"/>
</svg>
